<?xml version="1.0" standalone="no"?>
<!DOCTYPE svg PUBLIC "-//W3C//DTD SVG 20010904//EN"
 "http://www.w3.org/TR/2001/REC-SVG-20010904/DTD/svg10.dtd">
<svg version="1.0" xmlns="http://www.w3.org/2000/svg"
 width="305.000000pt" height="305.000000pt" viewBox="0 0 305.000000 305.000000"
 preserveAspectRatio="xMidYMid meet">
<metadata>
Created by potrace 1.14, written by Peter Selinger 2001-2017
</metadata>
<g transform="translate(0.000000,305.000000) scale(0.100000,-0.100000)"
fill="#000000" stroke="none">
<path d="M1882 2760 c-114 -30 -237 -101 -297 -172 -55 -65 -101 -126 -196
-263 -58 -82 -127 -181 -154 -220 -27 -38 -77 -110 -112 -160 -34 -49 -66 -94
-71 -100 -4 -5 -75 -107 -158 -225 -83 -118 -168 -240 -189 -270 -43 -61 -435
-622 -497 -712 -47 -67 -58 -120 -34 -167 37 -71 124 -88 189 -38 17 14 57 63
87 110 30 47 65 90 77 97 16 10 92 13 290 12 147 0 284 -1 304 -1 l35 -1 1
-118 c0 -151 7 -184 44 -222 25 -24 39 -30 74 -30 61 0 93 17 116 62 16 31 19
59 19 173 0 101 3 135 13 136 13 1 205 1 223 0 7 -1 11 -40 11 -118 0 -144 6
-180 38 -217 43 -50 153 -46 188 8 23 35 27 70 28 223 0 141 7 183 31 183 20
0 171 81 248 134 154 105 300 284 370 453 64 154 89 269 96 448 6 166 8 172
78 182 16 3 54 14 83 25 84 31 112 93 79 173 -16 38 -61 65 -141 84 -96 23
-97 23 -134 124 -73 200 -193 323 -381 392 -101 37 -250 43 -358 15z"/>
</g>
</svg>
